<?xml version="1.0" encoding="utf-8"?>
<!-- Generator: Adobe Illustrator 27.4.0, SVG Export Plug-In . SVG Version: 6.00 Build 0)  -->
<svg version="1.1" id="Warstwa_1" xmlns="http://www.w3.org/2000/svg" xmlns:xlink="http://www.w3.org/1999/xlink" x="0px" y="0px"
	 viewBox="0 0 165.8 26.4" style="enable-background:new 0 0 165.8 26.4;" xml:space="preserve">
<style type="text/css">
	.st0{fill:#04387C;}
	.st1{fill:#009EE3;}
</style>
<g>
	<path class="st0" d="M43.7,8.2L43.7,8.2h-0.2l-2.1,9.9h4.1L43.7,8.2z M46.9,24.6L46,19.9h-4.9L40,24.6h-3.6l4.7-18.4h5.2l4.5,18.4
		H46.9z"/>
	<polygon class="st0" points="53.4,24.6 53.4,6.2 57.2,6.2 57.2,22.7 62.6,22.7 62.6,24.6 	"/>
	<path class="st0" d="M71.2,8.2L71.2,8.2H71l-2.1,9.9H73L71.2,8.2z M74.3,24.6l-0.9-4.7h-4.9l-1.1,4.7h-3.6l4.8-18.4h5.2l4.5,18.4
		C78.3,24.6,74.3,24.6,74.3,24.6z"/>
	<path class="st0" d="M88.5,18L88.5,18c0-1.7-0.6-2.1-3.2-2.1h-0.8v6.9h0.8c2.6,0,3.2-0.5,3.2-2.1V18z M88.2,10.1L88.2,10.1
		c0-1.6-0.5-2-3-2h-0.8v6.1h0.8c2.4,0,3-0.5,3-2V10.1z M86.2,24.6h-5.4V6.2h5.1c4.3,0,6.2,0.7,6.2,3.1v3c0,1.7-1,2.5-3.6,2.8
		c2.7,0.2,3.9,1,3.9,2.7v3.8C92.4,23.9,90.6,24.6,86.2,24.6z"/>
	<polygon class="st1" points="98.3,24.3 102.1,11.5 103.7,11.5 99.9,24.3 	"/>
	<path class="st1" d="M107.3,19.6L107.3,19.6c-1.6,0-2.2,0.3-2.5,1.2l-0.4,1.4c-0.3,0.9-0.2,1.4,0.6,1.4c0.8,0,1.2-0.4,1.5-1.4
		L107.3,19.6z M106,24.3l0.1-0.6c-0.6,0.5-1.3,0.8-2.2,0.8c-1.4,0-1.6-0.7-1.2-2l0.5-1.8c0.4-1.4,1.6-1.9,4.4-2l0.4-1.3
		c0.3-1,0.2-1.4-0.6-1.4c-0.8,0-1.1,0.3-1.4,1.1l-0.1,0.5h-1.6l0.1-0.2c0.5-1.6,1.2-2.3,3.3-2.3c2.1,0,2.4,0.7,1.9,2.3l-2,6.8
		L106,24.3z"/>
	<path class="st1" d="M115.6,17.5L115.6,17.5c0.3-0.9,0.2-1.4-0.6-1.4c-0.8,0-1.2,0.4-1.5,1.4l-1.4,4.8c-0.3,0.9-0.2,1.4,0.7,1.4
		c0.9,0,1.2-0.4,1.5-1.4L115.6,17.5z M113.3,24.5c-0.9,0-1.4-0.3-1.7-0.8l-0.3,0.5h-1.5l3.8-12.8h1.6l-1.3,4.4
		c0.6-0.5,1.3-0.8,2.2-0.8c1.4,0,1.6,0.7,1.2,2l-1.6,5.2C115.3,23.9,114.7,24.5,113.3,24.5z"/>
	<path class="st1" d="M123.2,17.5L123.2,17.5c0.3-0.9,0.2-1.4-0.6-1.4c-0.8,0-1.2,0.4-1.5,1.4l-1.4,4.8c-0.3,0.9-0.2,1.4,0.6,1.4
		c0.8,0,1.1-0.4,1.4-1.4L123.2,17.5z M120.1,24.6c-2.2,0-2.4-0.8-1.9-2.6l1.3-4.2c0.5-1.8,1.2-2.5,3.4-2.5c2.1,0,2.4,0.8,1.9,2.5
		l-1.3,4.3C123,23.8,122.3,24.6,120.1,24.6z"/>
	<path class="st1" d="M131,16.4c-1.4,0-2,0.4-2.3,1.5l-1.9,6.5h-1.6l2.7-8.9h1.5l-0.1,0.6c0.6-0.5,1.3-0.8,2.1-0.8
		c0.1,0,0.2,0,0.3,0l-0.3,1.1L131,16.4z"/>
	<path class="st1" d="M135,19.7L135,19.7c-1.6,0-2.2,0.3-2.5,1.2l-0.4,1.4c-0.3,0.9-0.2,1.4,0.6,1.4s1.2-0.4,1.5-1.4L135,19.7z
		 M133.7,24.4l0.1-0.5c-0.6,0.5-1.3,0.8-2.2,0.8c-1.4,0-1.6-0.7-1.2-2l0.5-1.8c0.4-1.4,1.6-1.9,4.4-2l0.4-1.3c0.3-1,0.2-1.4-0.6-1.4
		s-1.1,0.3-1.4,1.1l-0.1,0.5H132l0.1-0.2c0.5-1.6,1.2-2.3,3.3-2.3s2.4,0.7,1.9,2.3l-2,6.8H133.7z"/>
	<path class="st1" d="M139.6,24.6c-1.9,0-1.9-0.6-1.4-2.2l1.8-6.1h-0.9l0.3-0.9h0.9l0.6-2l1.7-0.4l-0.7,2.4h1.2l-0.3,0.9h-1.2
		l-2,6.6c-0.1,0.5,0,0.7,0.8,0.7h0.2l-0.3,0.9C140.1,24.6,139.8,24.6,139.6,24.6"/>
	<path class="st1" d="M147.7,17.6L147.7,17.6c0.3-0.9,0.2-1.4-0.6-1.4s-1.2,0.4-1.5,1.4l-1.4,4.8c-0.3,0.9-0.2,1.4,0.6,1.4
		s1.1-0.4,1.4-1.4L147.7,17.6z M144.5,24.6c-2.2,0-2.4-0.8-1.9-2.6l1.3-4.2c0.5-1.8,1.2-2.5,3.4-2.5s2.4,0.8,1.9,2.5l-1.3,4.3
		C147.4,23.9,146.7,24.6,144.5,24.6z"/>
	<path class="st1" d="M155.5,16.4c-1.4,0-2,0.4-2.3,1.5l-1.9,6.5h-1.6l2.7-8.9h1.5l-0.1,0.6c0.6-0.5,1.3-0.8,2.1-0.8
		c0.1,0,0.2,0,0.3,0l-0.3,1.1L155.5,16.4z"/>
	<path class="st1" d="M157.8,13L157.8,13l0.4-1.3h1.8l-0.4,1.3H157.8z M154.4,24.4l2.7-8.9h1.6l-2.7,8.9H154.4z"/>
	<path class="st1" d="M163.4,19.7L163.4,19.7c-1.6,0-2.2,0.3-2.5,1.2l-0.4,1.4c-0.3,0.9-0.2,1.4,0.6,1.4s1.2-0.4,1.5-1.4L163.4,19.7
		z M162.1,24.4l0.1-0.6c-0.6,0.5-1.3,0.8-2.2,0.8c-1.4,0-1.6-0.7-1.2-2l0.5-1.8c0.4-1.4,1.6-1.9,4.4-2l0.4-1.3
		c0.3-1,0.2-1.4-0.6-1.4s-1.1,0.3-1.4,1.1l-0.2,0.5h-1.6l0.1-0.2c0.5-1.6,1.2-2.3,3.3-2.3s2.4,0.7,1.9,2.3l-2.1,6.8L162.1,24.4z"/>
	<polygon class="st1" points="98.3,24.3 102.1,11.5 103.7,11.5 99.9,24.3 	"/>
	<path class="st1" d="M107.3,19.6L107.3,19.6c-1.6,0-2.2,0.3-2.5,1.2l-0.4,1.4c-0.3,0.9-0.2,1.4,0.6,1.4c0.8,0,1.2-0.4,1.5-1.4
		L107.3,19.6z M106,24.3l0.1-0.6c-0.6,0.5-1.3,0.8-2.2,0.8c-1.4,0-1.6-0.7-1.2-2l0.5-1.8c0.4-1.4,1.6-1.9,4.4-2l0.4-1.3
		c0.3-1,0.2-1.4-0.6-1.4c-0.8,0-1.1,0.3-1.4,1.1l-0.1,0.5h-1.6l0.1-0.2c0.5-1.6,1.2-2.3,3.3-2.3c2.1,0,2.4,0.7,1.9,2.3l-2,6.8
		L106,24.3z"/>
	<path class="st1" d="M115.6,17.5L115.6,17.5c0.3-0.9,0.2-1.4-0.6-1.4c-0.8,0-1.2,0.4-1.5,1.4l-1.4,4.8c-0.3,0.9-0.2,1.4,0.7,1.4
		c0.9,0,1.2-0.4,1.5-1.4L115.6,17.5z M113.3,24.5c-0.9,0-1.4-0.3-1.7-0.8l-0.3,0.5h-1.5l3.8-12.8h1.6l-1.3,4.4
		c0.6-0.5,1.3-0.8,2.2-0.8c1.4,0,1.6,0.7,1.2,2l-1.6,5.2C115.3,23.9,114.7,24.5,113.3,24.5z"/>
	<path class="st1" d="M123.2,17.5L123.2,17.5c0.3-0.9,0.2-1.4-0.6-1.4c-0.8,0-1.2,0.4-1.5,1.4l-1.4,4.8c-0.3,0.9-0.2,1.4,0.6,1.4
		c0.8,0,1.1-0.4,1.4-1.4L123.2,17.5z M120.1,24.6c-2.2,0-2.4-0.8-1.9-2.6l1.3-4.2c0.5-1.8,1.2-2.5,3.4-2.5c2.1,0,2.4,0.8,1.9,2.5
		l-1.3,4.3C123,23.8,122.3,24.6,120.1,24.6z"/>
	<path class="st1" d="M131,16.4c-1.4,0-2,0.4-2.3,1.5l-1.9,6.5h-1.6l2.7-8.9h1.5l-0.1,0.6c0.6-0.5,1.3-0.8,2.1-0.8
		c0.1,0,0.2,0,0.3,0l-0.3,1.1L131,16.4z"/>
	<path class="st1" d="M135,19.7L135,19.7c-1.6,0-2.2,0.3-2.5,1.2l-0.4,1.4c-0.3,0.9-0.2,1.4,0.6,1.4s1.2-0.4,1.5-1.4L135,19.7z
		 M133.7,24.4l0.1-0.5c-0.6,0.5-1.3,0.8-2.2,0.8c-1.4,0-1.6-0.7-1.2-2l0.5-1.8c0.4-1.4,1.6-1.9,4.4-2l0.4-1.3c0.3-1,0.2-1.4-0.6-1.4
		s-1.1,0.3-1.4,1.1l-0.1,0.5H132l0.1-0.2c0.5-1.6,1.2-2.3,3.3-2.3s2.4,0.7,1.9,2.3l-2,6.8H133.7z"/>
	<path class="st1" d="M139.6,24.6c-1.9,0-1.9-0.6-1.4-2.2l1.8-6.1h-0.9l0.3-0.9h0.9l0.6-2l1.7-0.4l-0.7,2.4h1.2l-0.3,0.9h-1.2
		l-2,6.6c-0.1,0.5,0,0.7,0.8,0.7h0.2l-0.3,0.9C140.1,24.6,139.8,24.6,139.6,24.6"/>
	<path class="st1" d="M147.7,17.6L147.7,17.6c0.3-0.9,0.2-1.4-0.6-1.4s-1.2,0.4-1.5,1.4l-1.4,4.8c-0.3,0.9-0.2,1.4,0.6,1.4
		s1.1-0.4,1.4-1.4L147.7,17.6z M144.5,24.6c-2.2,0-2.4-0.8-1.9-2.6l1.3-4.2c0.5-1.8,1.2-2.5,3.4-2.5s2.4,0.8,1.9,2.5l-1.3,4.3
		C147.4,23.9,146.7,24.6,144.5,24.6z"/>
	<path class="st1" d="M155.5,16.4c-1.4,0-2,0.4-2.3,1.5l-1.9,6.5h-1.6l2.7-8.9h1.5l-0.1,0.6c0.6-0.5,1.3-0.8,2.1-0.8
		c0.1,0,0.2,0,0.3,0l-0.3,1.1L155.5,16.4z"/>
	<path class="st1" d="M157.8,13L157.8,13l0.4-1.3h1.8l-0.4,1.3H157.8z M154.4,24.4l2.7-8.9h1.6l-2.7,8.9H154.4z"/>
	<path class="st1" d="M163.4,19.7L163.4,19.7c-1.6,0-2.2,0.3-2.5,1.2l-0.4,1.4c-0.3,0.9-0.2,1.4,0.6,1.4s1.2-0.4,1.5-1.4L163.4,19.7
		z M162.1,24.4l0.1-0.6c-0.6,0.5-1.3,0.8-2.2,0.8c-1.4,0-1.6-0.7-1.2-2l0.5-1.8c0.4-1.4,1.6-1.9,4.4-2l0.4-1.3
		c0.3-1,0.2-1.4-0.6-1.4s-1.1,0.3-1.4,1.1l-0.2,0.5h-1.6l0.1-0.2c0.5-1.6,1.2-2.3,3.3-2.3s2.4,0.7,1.9,2.3l-2.1,6.8L162.1,24.4z"/>
	<path class="st1" d="M25.2,18.4c-0.2,0-1.5,0.1-1.9,0.1c-2.3,0-4.4-1.1-5.7-2.8l-0.1-0.1c-0.8-1.2-1.3-2.6-1.3-4.1s1.7-4.9,1.9-5.3
		C20,3,17.6,0,14.7,0s-5.2,3-3.4,6.2c0.2,0.3,2,3.6,2,5.3c0,1.3-0.4,2.6-1,3.6c0,0-0.4,0.6-0.5,0.7c-1.3,1.7-3.3,2.7-5.6,2.7
		c-0.4,0-1.7-0.1-2-0.1c-3.7,0-5.1,3.5-3.7,6s5.2,3,7.1-0.2c0.2-0.3,0.3-0.6,0.5-0.9c1.1-2.5,3.7-4.3,6.6-4.3c2.8,0,5.3,1.7,6.4,4
		c0.3,0.4,0.5,0.7,0.7,1.1c1.9,3.2,5.6,2.7,7.1,0.2C30.4,21.9,28.9,18.4,25.2,18.4"/>
</g>
</svg>
